<svg width="568" height="568" viewBox="0 0 568 568" fill="none" xmlns="http://www.w3.org/2000/svg">
<g clip-path="url(#clip0)">
<g opacity="0.6">
<path d="M688.534 611.631L685.462 612.803L678 609.729L669.66 610.607L657.809 607.094L654.736 606.215L652.98 596.992L647.713 595.675L645.518 597.871L639.812 600.066L642.007 596.553L633.228 600.506L627.522 596.114L619.182 594.357L614.792 588.208L607.769 587.769L606.891 580.742L603.38 575.472L600.307 570.201L596.357 569.323L595.918 571.08L591.528 567.566L588.895 568.005L584.505 564.492V558.782L580.994 555.708L582.75 549.559L575.727 542.532L570.02 541.654L566.07 530.235L566.948 523.647L570.459 519.694V514.863V512.667L566.948 511.789L562.997 508.275V503.883L559.047 498.613L556.852 492.025V486.755L555.974 481.485L558.608 476.214L562.997 476.654L567.387 479.289L569.581 481.485L572.215 484.559L575.727 484.998L578.799 481.924L582.311 478.85L584.505 477.093L587.578 479.728L585.383 481.924L588.456 484.12L585.383 487.633L588.456 489.829L591.09 492.904V496.856L592.845 500.809L596.357 501.687L598.99 500.809L602.941 503.005L602.502 505.64L606.452 507.397L614.353 509.593L620.499 508.275L625.766 506.519L628.4 508.275L630.594 506.958L629.716 500.59L635.862 499.492L636.959 495.539L642.007 492.904L645.957 493.343L649.688 491.806L656.053 492.025L657.37 494.88L660.442 495.319L661.759 497.515L667.685 497.296L670.099 497.735L672.733 502.127L675.805 502.566L678.658 506.738L684.365 506.958L685.608 517.059L680.634 529.942L680.049 534.919L681.805 536.675L680.634 540.774L682.389 546.483L684.145 555.121L688.096 556.585L688.534 562.733L685.023 570.639L685.901 574.592L692.046 580.594L696.729 586.45L697.313 591.72L697.898 594.649L691.607 599.186L688.096 603.578L687.95 608.703L688.534 611.631Z" fill="#808080" stroke="white" stroke-width="0.7"/>
<path d="M576.166 483.972V480.165C576.166 480.165 575.581 476.067 576.751 476.945C577.92 477.824 579.091 478.995 579.091 478.995L579.675 475.188L577.626 472.553L573.822 470.796V474.895L571.481 476.067L570.31 472.553L569.139 469.333L566.799 468.455L562.409 464.941L561.825 460.549L569.726 463.478L572.066 460.843L569.432 458.501L567.383 454.694L569.432 454.109L576.162 455.866L580.845 460.258L584.063 461.429L587.575 457.622L592.842 463.186L595.182 467.871L600.743 470.8L595.182 475.485L594.011 481.341L593.133 484.854L590.207 485.732L591.084 492.905L585.378 487.635L588.158 483.389L586.109 481.926L587.571 479.73L585.231 477.534L576.166 483.972V483.972Z" fill="#808080" stroke="white" stroke-width="0.7"/>
<path d="M558.608 476.213L555.681 473.432L552.17 472.553V467.868L551.585 464.354L548.951 460.841L561.826 460.548L562.411 464.94L566.8 468.453L569.141 469.331L571.481 476.065L573.822 474.893V470.795L577.626 472.552L579.675 475.187L579.091 478.994L576.75 476.943L576.166 483.971L574.995 485.434L572.215 484.556L569.582 481.481L565.924 478.7L562.997 476.65L560.657 476.357L558.608 476.213V476.213Z" fill="#808080" stroke="white" stroke-width="0.7"/>
<path d="M548.951 460.841L545.44 459.962L544.269 456.449L538.708 458.791L535.49 457.912L534.319 451.179L531.978 447.08L526.126 445.323L522.615 442.103L519.981 439.175L526.42 438.881H533.736L540.174 442.395L546.026 444.152L550.709 444.737L555.392 448.544L559.196 448.25L565.048 448.835L568.267 453.812L567.389 454.69L569.438 458.497L572.071 460.839L569.731 463.474L562.708 460.839L560.367 459.961L548.951 460.841Z" fill="#808080" stroke="white" stroke-width="0.7"/>
<path d="M559.486 500.076L555.681 500.661L552.754 499.783L547.78 501.246H543.976L538.708 505.932L535.197 509.739L534.612 516.766L534.027 522.914L532.565 526.721L514.423 539.019L515.301 541.069L515.594 548.389L517.056 548.683L517.35 550.146L530.811 551.611L560.074 575.912L572.071 576.497L580.85 568.885L588.897 568.007L584.507 564.493L584.653 559.517L580.996 555.71L582.752 549.561L575.729 542.534L570.022 541.655L566.072 530.236L566.95 523.649L570.461 519.696L569.729 512.962L566.95 511.79L562.999 508.277V503.885L559.486 500.076V500.076Z" fill="#808080" stroke="white" stroke-width="0.7"/>
<path d="M538.708 501.247L536.367 503.882L529.344 503.297L519.395 506.81L512.956 504.175L504.471 506.81L501.544 504.175L498.617 505.638V510.03L492.765 515.594L490.131 519.401L491.594 519.694L492.472 527.015H495.983L496.861 530.235L493.643 532.577L493.058 536.09L491.596 537.847L491.011 543.411L494.229 545.461L495.4 547.803L499.205 547.509L504.472 545.167L532.564 526.721L534.027 522.915L534.612 510.617L543.097 502.127L540.757 501.248L538.708 501.247V501.247Z" fill="#808080" stroke="white" stroke-width="0.7"/>
<path d="M491.596 537.847L487.791 536.969L488.962 532.87L490.718 529.941L492.474 527.013H495.107L496.863 530.233L493.645 532.575L493.06 536.088L491.596 537.847V537.847Z" fill="#808080" stroke="white" stroke-width="0.7"/>
<path d="M491.011 543.409L490.133 546.044L487.206 545.751L486.913 549.558L486.328 553.95L488.377 555.413L487.206 560.392L486.035 573.567L496.57 577.372L500.666 571.517L504.177 570.639L507.104 567.71V565.954L509.153 565.662V564.49L502.423 558.341V556.291L517.641 550.73L517.056 548.679L515.593 548.386L515.3 541.066L514.422 539.015L499.205 547.506L495.4 547.799L494.229 545.457L491.011 543.409V543.409Z" fill="#808080" stroke="white" stroke-width="0.7"/>
<path d="M483.402 585.573L486.62 587.036L489.547 591.428L493.643 598.164L498.326 605.482L501.837 610.168C501.837 610.168 501.253 612.218 501.544 613.096C501.836 613.975 504.178 617.78 504.178 617.78L511.786 622.465L517.638 633.006L515.882 638.276L517.344 642.668L517.929 646.475L523.781 650.867L528.17 654.38L531.975 662.871L535.78 669.604L539.584 673.411L544.852 682.488L547.192 679.56L548.655 673.705H550.704L552.459 675.461C552.459 675.461 559.776 674.291 560.945 674.583C562.114 674.875 566.797 676.34 566.797 676.34L574.991 676.925L577.332 678.975L579.965 677.218L583.77 670.191L589.622 666.384L598.694 663.749L610.106 663.164L615.958 661.407L639.368 652.037L642.002 635.347L640.831 633.591L639.075 629.785L636.148 632.127L620.931 628.907L614.786 623.637L610.981 618.073L610.103 618.366V614.853L606.298 611.924L606.005 608.704L603.956 611.339L602.2 607.532L599.567 604.019L602.2 599.627L601.907 596.992L598.689 596.699L594.006 594.357L594.299 592.015L591.959 589.086L589.325 586.745L587.863 581.474L586.107 577.961L584.351 580.009L582.595 580.303L579.084 577.374L573.232 575.911H560.064L530.8 551.609L517.632 550.731L502.415 556.293V558.343L509.145 564.492V565.663L507.096 565.955V567.712L504.169 570.64L500.658 571.519L496.561 577.374L486.027 573.569L485.734 577.961L485.44 580.888L483.402 585.573V585.573Z" fill="#808080" stroke="white" stroke-width="0.7"/>
<path d="M485.305 574.593L483.988 566.249L480.916 558.928L481.939 557.026L482.378 553.805L482.524 549.413L484.719 547.803L485.012 543.556L486.329 540.482L487.791 536.969L491.303 538.286L490.718 543.996L490.133 546.046L487.206 546.192L486.035 554.097L487.937 555.562L487.059 559.807L485.888 574.154L485.305 574.593V574.593Z" fill="#808080" stroke="white" stroke-width="0.7"/>
<path d="M536.002 458.865L531.613 463.476L529.857 463.696L524.37 466.111L521.737 465.452L517.347 465.013L511.422 466.99L507.252 466.331L503.082 465.233L502.204 465.892L497.156 463.256L494.303 462.598L492.986 459.304L488.158 458.865L485.744 455.79L480.476 456.449L466.65 456.669L463.358 460.402L458.968 462.598L457.871 465.672L451.945 465.452L441.85 464.574L440.313 465.013L435.485 462.378L431.315 459.304L431.534 455.351L424.95 454.473L421.658 456.669L421.219 461.061L419.244 465.672L416.61 467.648L417.269 469.844L422.756 470.064L425.389 470.284L428.901 465.892L433.29 466.331L437.46 465.892L439.874 465.672L441.191 467.429L442.727 468.966L444.044 469.625L438.777 470.503L440.533 473.358L436.802 472.919L431.754 472.699L428.681 471.382H422.317L418.805 472.04L417.708 474.456L418.805 478.409L417.927 481.044L421.658 481.263L423.194 481.044L422.536 484.996L424.072 487.412V490.486L422.756 491.804L420.561 489.828L419.463 491.804L420.122 494L422.975 494.439L426.487 496.196L424.292 498.611L426.925 499.709L427.803 502.564L426.487 504.321L430.218 504.98L433.729 504.76L430.656 507.395L433.071 509.372L434.168 507.834L437.241 506.956L438.777 508.932L442.069 511.568L446.019 512.666L452.165 512.007L452.823 507.615H456.774L461.602 509.591L464.894 512.226L466.43 513.764H475.429L479.16 511.348L483.11 507.615H486.622L487.499 509.372L491.011 508.932L493.645 505.419L494.303 508.054L492.328 510.689L492.767 515.594L498.619 510.03V505.638L501.546 504.175L504.472 506.81L512.958 504.175L518.884 506.736L528.76 503.443L536.368 503.882L538.708 501.247L542.365 501.686L544.999 501.027L548.291 501.247L553.339 499.709L555.679 500.662L559.484 500.077L556.631 493.343L556.85 486.755L555.972 481.485L558.606 476.214L555.679 473.433L552.168 472.555L551.583 464.356L548.949 460.843L545.438 459.964L544.267 456.451L538.706 458.793L536.002 458.865V458.865Z" fill="#808080" stroke="white" stroke-width="0.7"/>
<path d="M463.942 524.378L467.308 522.328H470.526L472.867 520.717H476.378L481.791 517.349L482.524 519.106L477.841 522.619L477.695 524.961L478.134 526.718L475.355 527.45L471.989 527.305L469.794 527.89L467.893 528.768L465.698 528.475L464.966 526.133L463.942 524.378V524.378Z" fill="#808080" stroke="white" stroke-width="0.7"/>
<path d="M482.232 555.123L476.672 559.221L470.233 560.685L465.551 560.1L460.868 557.758L459.99 555.123L455.308 556.88L451.796 558.636L450.334 556.001L445.944 558.928L440.092 562.442L435.118 559.806H428.973L423.706 557.465L416.683 555.415L413.464 556.001L410.537 555.708L409.66 554.536L407.904 556.586L408.197 558.928L409.368 560.978L408.783 564.492L407.612 566.248L409.368 571.519L409.953 575.032L409.66 637.398H455.016V635.348L457.357 635.641V637.691L471.988 637.398L473.743 638.569H477.255L479.304 635.056L482.231 634.469L484.864 630.077L487.205 629.786L490.132 627.442L488.669 621.88L491.303 620.415L486.62 617.195L479.304 603.434L476.67 598.164L476.377 594.063L474.036 590.843V587.915L468.769 581.766L466.72 575.032L466.136 571.519V567.42L468.476 572.104L470.232 577.374L473.159 582.644L478.426 587.915H480.766L481.351 584.401L482.229 580.596L484.569 575.326L485.154 572.691L483.983 566.248L480.91 558.928L482.232 555.123V555.123Z" fill="#808080" stroke="white" stroke-width="0.7"/>
<path d="M462.333 339.624L455.455 341.6L452.383 347.529L451.944 351.921L447.554 349.725L443.604 348.847L440.751 347.749L438.337 349.067L429.119 347.749L424.291 346.431H418.804L407.611 345.333L401.905 348.188L399.71 349.725L401.905 355.654L403.221 360.705L402.124 364.219L397.076 367.513L394.004 371.685L393.126 374.54L389.614 375.198L388.297 383.543L392.687 390.131L395.32 388.374L401.027 389.911L406.294 390.57L408.928 391.888L413.098 389.692L417.048 389.253L422.315 386.398L425.827 384.421L428.68 383.323L433.728 385.739L439.215 387.057L441.848 389.692L443.823 394.962L446.238 398.476L446.457 405.942L443.165 407.699L440.751 408.357L439.653 412.53L437.459 414.067L433.728 414.287V416.922L436.8 419.776L439.873 418.239L442.507 417.8L445.36 416.922L449.749 414.945L450.188 411.871L450.408 409.455L455.675 407.699L460.723 406.381L462.698 405.942V410.553L465.112 412.749L469.501 412.091L473.232 412.969L474.549 413.628L471.696 415.824L467.307 418.239L467.526 419.557L471.696 421.972L473.232 422.631V428.341L474.988 430.976L481.572 428.78L485.742 425.925L488.815 423.51L492.985 423.07L494.741 421.533L491.229 420.874L487.279 420.655H484.645L483.987 418.459L482.011 415.384L479.817 414.287L478.061 412.53H481.353L485.303 411.651L489.254 408.138L494.521 406.601L498.472 405.503L502.642 403.526L506.592 400.452L512.663 400.232L511.201 396.719L516.029 394.084L518.809 390.864L522.833 390.79L526.418 385.885L523.491 380.688L525.247 372.563L521.151 371.539L519.395 369.197L517.346 369.491L513.25 366.271L509.154 364.514L506.52 361L502.131 363.635L497.156 361.585L491.011 362.17L487.207 352.215L481.939 351.921L480.768 343.137L477.257 338.452L462.333 339.624V339.624Z" fill="#808080" stroke="white" stroke-width="0.7"/>
<path d="M423.853 385.959L424.95 387.935L427.145 391.668L430.437 394.523L433.071 399.793L433.949 404.624L433.729 413.189V414.287L437.46 414.067L439.655 412.53L440.752 408.358L446.458 405.942L446.239 398.476L443.825 394.962L441.85 389.692L439.216 387.057L434.388 385.739L428.681 383.323L423.853 385.959Z" fill="#808080" stroke="white" stroke-width="0.7"/>
<path d="M392.249 390.79L391.372 393.645L387.202 395.621L385.226 397.597L383.91 400.891L382.154 406.162L378.642 409.016L373.375 410.114L376.009 414.726L379.301 418.679L381.934 419.996L382.812 422.631L385.885 426.584L389.396 427.462L392.03 426.804L391.372 429.878L393.127 432.733L394.005 435.148L404.101 436.466H410.685L413.977 436.905L421.878 434.05L424.731 431.854L429.121 433.391L430.437 433.831H432.413L433.729 436.027L436.144 436.466L438.119 429.219L438.777 425.706L440.094 428.341L443.386 426.364L444.483 422.631L444.045 418.02L441.85 418.459L438.997 418.679L436.802 419.776L433.729 416.922V411.212V403.307L432.413 399.354L430.437 394.523L427.145 391.668L423.853 385.959L417.05 389.253L413.099 389.692L408.929 391.888L406.296 390.57L399.053 389.692L395.322 388.374L392.249 390.79Z" fill="#808080" stroke="white" stroke-width="0.7"/>
<path d="M422.536 456.229L419.244 455.57L418.586 459.084L415.294 460.621L409.807 460.402L405.637 458.645L402.784 457.986L398.394 460.402H395.541L395.102 454.253L391.591 452.057L390.713 450.3L391.591 443.712L394.005 441.736L391.591 436.466L392.249 431.854L394.005 435.148L398.833 435.807L407.832 436.466H410.685L413.977 436.905L419.244 435.368L421.878 434.05L424.731 431.854L429.779 434.05L432.412 433.831L433.729 436.027L436.143 436.466L436.363 441.516L432.632 441.736L431.534 442.834L431.315 448.104L428.681 449.861L427.365 451.837L430.437 452.057L431.534 455.351L426.487 454.472L422.536 456.229Z" fill="#808080" stroke="white" stroke-width="0.7"/>
<path d="M393.786 461.719L388.957 463.037L386.982 462.598L384.787 465.233L379.081 465.892L377.984 471.162L375.35 475.115L374.911 477.311L367.888 478.189L370.522 483.24L372.058 480.385L374.033 483.899L376.448 485.216L377.106 487.851L374.911 489.389L377.984 489.828L379.52 492.682L383.251 492.463L389.835 492.682L393.127 495.098H389.835L385.665 493.341L381.276 494L378.423 496.416L376.448 494L374.253 491.804L373.155 494.439L375.35 496.416H376.448L375.57 499.051L378.203 499.49L379.301 498.172L379.74 496.855L382.154 499.929L382.593 502.345L383.251 504.76L384.568 508.054L385.226 505.2L388.518 507.176L389.396 510.689C389.396 510.689 390.933 507.176 391.591 508.054C392.249 508.933 394.664 512.007 394.664 511.129C394.664 510.25 393.786 504.98 393.786 504.98L390.494 501.247L393.347 500.149L395.322 501.906L397.297 500.588L394.664 497.953L397.956 497.294L401.906 499.71L402.565 495.318L404.32 492.902L403.223 490.267L401.028 488.73L396.639 487.851L394.664 486.095L394.444 488.73L392.03 487.412L393.347 484.997L393.127 481.922L392.469 478.848L390.933 476.213L392.03 469.625L394.444 470.942L395.761 474.895L398.614 475.993L400.37 472.26L399.492 468.746L402.565 469.405L405.857 466.55L407.393 468.307L409.368 465.892L413.099 467.868L416.611 467.648L419.244 465.672L421.22 461.06L421.658 456.669L419.244 455.571L418.586 459.084L415.294 460.621L409.807 460.402L405.637 458.645L402.784 457.986L399.272 460.621L395.541 460.402L393.786 461.719Z" fill="#808080" stroke="white" stroke-width="0.7"/>
<path d="M397.078 519.912L400.37 522.108H403.881L406.734 524.304H410.685L415.733 524.085L419.903 522.108L423.195 520.132L426.048 520.352L427.145 517.936L429.779 514.862L431.754 515.74L433.949 512.007L431.974 510.47L428.901 513.105L428.243 515.301L426.487 517.058L423.634 517.936L422.097 519.912L419.025 521.45L416.83 522.548L414.855 521.45L411.563 520.571L408.271 520.352L406.295 519.693L404.101 518.375L401.687 519.254L397.956 518.595L397.078 519.912Z" fill="#808080" stroke="white" stroke-width="0.7"/>
<path d="M415.294 483.02L417.05 484.996L419.244 486.314L421.22 484.337L418.805 481.922L415.294 483.02Z" fill="#808080" stroke="white" stroke-width="0.7"/>
<path d="M415.294 489.608L414.855 493.78L418.366 494.659L419.464 491.804L417.708 489.169L415.294 489.608Z" fill="#808080" stroke="white" stroke-width="0.7"/>
<path d="M409.149 475.993L408.49 479.067H411.563L412.88 476.871L409.149 475.993Z" fill="#808080" stroke="white" stroke-width="0.7"/>
<path d="M379.081 465.892L376.009 462.013L376.593 456.742L378.349 454.692L379.227 452.057L383.032 451.764L386.543 449.129L389.177 450.3H390.713L392.689 452.642L395.103 454.253L395.542 460.402L393.786 461.719L389.762 462.598H386.982L383.91 465.526L379.081 465.892Z" fill="#808080" stroke="white" stroke-width="0.7"/>
<path d="M368.986 477.239V475.482L366.937 472.553L366.352 466.111L366.645 462.304L366.939 460.254L367.523 457.326L366.939 456.447L367.816 448.248H372.206L374.546 450.298L376.887 452.349L376.593 456.74L376.3 460.254L376.885 463.183L379.08 465.891L378.056 469.04L377.982 471.162L376.007 474.602L374.91 477.31L368.986 477.239V477.239Z" fill="#808080" stroke="white" stroke-width="0.7"/>
<path d="M367.01 457.327L364.816 455.351L361.304 452.496L360.426 447.885L361.304 443.493L364.377 440.638L366.132 437.783L367.01 436.905L369.205 438.881L373.156 442.614L371.18 447.885L367.888 447.445L367.01 457.327Z" fill="#808080" stroke="white" stroke-width="0.7"/>
<path d="M368.108 435.807L367.01 430.537L366.352 424.827L366.132 420.216L366.571 417.581L364.157 412.969L368.327 410.553L373.156 410.773L378.203 417.8L381.934 419.996L383.91 423.729L385.885 426.584L389.396 427.462L392.03 426.804L391.372 429.878L392.469 432.513L391.591 436.466L394.005 441.736L391.591 445.25L390.713 450.3L388.299 450.081L385.885 449.202L383.032 451.764L379.227 452.057L376.667 456.229L376.887 452.35L374.253 449.642L371.18 447.885L373.156 442.614L369.205 438.881L367.01 436.905L368.108 435.807V435.807Z" fill="#808080" stroke="white" stroke-width="0.7"/>
<path d="M355.159 445.249L352.745 446.128V442.614L349.892 437.564L344.844 434.27L343.088 429.439L341.113 425.486L339.796 422.631L340.674 420.216L344.405 421.753L346.161 420.216L351.867 421.314L354.061 422.631L357.134 421.753L359.987 422.412L363.499 425.266L366.352 424.827L367.01 431.195L368.108 435.807L366.132 437.783L363.938 441.516L361.304 443.493L360.426 447.885L358.231 447.665L355.159 445.249Z" fill="#808080" stroke="white" stroke-width="0.7"/>
<path d="M335.187 417.361L329.7 416.922L324.653 417.361L322.897 419.557L321.141 421.314L325.092 425.705L325.311 421.753L327.067 420.655L330.578 423.29L331.676 425.705L333.651 426.364C333.651 426.364 330.359 428.78 331.017 428.999C331.676 429.219 334.529 431.195 334.529 431.195L333.87 432.952L333.651 434.27L336.285 437.124L338.918 439.101L340.016 441.736L343.088 440.418L345.941 440.858L348.136 442.614L348.794 445.25L350.331 445.908L352.525 447.226L354.72 448.763L357.134 450.52L359.548 452.277L361.304 452.496L359.548 448.543L358.232 447.665L355.159 445.25L353.403 446.348L352.745 442.614L349.892 437.564L344.844 434.27L339.796 422.631L340.674 420.216L344.405 421.753L346.161 420.216L352.745 421.753L354.062 422.631L357.134 421.753L359.329 422.192L363.499 425.266L366.352 424.827L366.133 420.216L366.572 417.58L364.157 412.969H354.062L347.258 407.04L344.186 405.722L340.893 408.577L339.138 410.773L335.846 415.824L335.187 417.361Z" fill="#808080" stroke="white" stroke-width="0.7"/>
<path d="M351.647 388.813L349.672 389.253L348.794 393.205L345.721 393.864L343.966 399.134L342.21 401.989L344.185 405.722L347.258 406.381L354.061 412.969H364.157L368.327 410.553L373.155 410.773L378.642 409.016L382.154 406.161L385.226 397.597L387.421 394.962L391.371 392.986L392.688 390.131L388.299 383.543L385.665 383.982L376.886 383.323L373.814 385.519L370.961 386.837L364.815 387.935L362.621 391.449L358.231 391.888L353.183 391.668L351.647 388.813Z" fill="#808080" stroke="white" stroke-width="0.7"/>
<path d="M323.775 416.922L323.116 413.847L321.36 410.114L322.677 405.722L326.408 406.381L330.139 407.04L335.187 404.844L338.04 402.867L342.21 401.989L344.185 405.722L340.893 408.577L335.846 415.824L335.187 417.361L330.798 417.141L325.75 417.361L323.775 416.922Z" fill="#808080" stroke="white" stroke-width="0.7"/>
<path d="M349.672 389.253L347.916 387.716L348.575 384.641L348.136 382.226L347.697 379.81L349.453 378.053L354.72 377.395L359.768 374.101L361.304 371.905L361.523 369.27L364.596 373.003L368.327 371.465L371.4 373.881L374.692 373.442H377.106L381.056 372.783L383.471 371.685L386.543 373.881L389.616 376.297L388.299 383.543L385.665 383.982L380.837 383.324H376.886L373.814 385.52L370.961 386.837L364.816 387.935L362.621 391.449L353.184 391.668L351.867 389.472L349.672 389.253Z" fill="#808080" stroke="white" stroke-width="0.7"/>
<path d="M400.37 349.506L399.712 346.432L400.589 341.161L397.736 339.624L398.834 336.111L401.467 333.036L401.687 327.327L399.492 320.08L405.198 318.762L406.296 315.908L411.782 312.614H413.758L415.513 305.367L422.536 300.097L421.878 295.924L424.292 293.729L427.365 292.191L431.754 292.411L433.729 288.897L435.485 287.141L436.583 288.678L446.02 289.556L447.995 292.776L454.14 291.898L456.481 303.024L459.114 311.807L463.211 315.906L463.504 319.419L467.089 323.153L465.553 328.497L459.701 328.203L462.334 339.622L455.457 341.599L452.384 347.528L451.946 351.92L448.215 349.943L443.606 348.845L440.753 347.747L438.338 349.065L429.121 347.747L424.951 346.43L420.122 346.649L407.613 345.332L400.37 349.506V349.506Z" fill="#808080" stroke="white" stroke-width="0.7"/>
<path d="M431.535 263.644L429.121 266.498L424.951 265.84L421 266.718L413.099 260.789L406.076 262.326L404.54 262.546V258.154H402.784L401.687 261.009L399.053 257.715L397.078 254.421L394.664 255.519L394.005 258.373L390.494 260.35L388.299 261.228L387.202 263.863L385.885 261.009L384.788 257.934L386.104 255.519H388.958L389.616 253.323L388.299 251.127L385.665 250.688L387.202 249.37L391.372 247.833L393.347 250.029L391.152 253.103L390.933 254.64L393.127 254.421L395.322 254.201L396.858 252.664L396.2 250.248L394.664 249.37L397.078 246.515L399.492 243.88L402.565 243.221L406.515 239.927L407.832 241.025L412.88 241.245L415.294 239.708L418.586 241.025L423.195 241.904L427.145 242.563L431.022 242.123L431.607 246.809L426.633 251.786L430.657 261.887L431.535 263.644Z" fill="#808080" stroke="white" stroke-width="0.7"/>
<path d="M401.686 278.576L395.98 279.015L394.005 274.404L390.932 270.671L389.177 268.036L382.373 271.33L380.837 275.722L380.178 280.113L378.203 284.066V289.776L385.226 285.384L402.564 284.725L405.856 285.384L408.49 284.505L411.343 287.58L416.61 289.336L421.878 295.924L424.292 293.728L427.364 292.191L431.754 292.411L433.729 288.897L435.485 287.141L434.533 285.164L434.607 277.698L434.533 270.525L433.071 264.961L431.534 263.644L429.998 266.499L424.95 265.84L421 266.718L413.099 260.789L404.54 262.546L403.881 273.086L403.223 277.698L401.686 278.576Z" fill="#808080" stroke="white" stroke-width="0.7"/>
<path d="M377.764 291.972L378.862 295.485L379.52 299.218L381.495 300.097L384.129 301.853L388.738 303.61L393.566 304.489L394.224 308.661L394.005 311.516L397.297 313.931L398.833 317.005L399.492 320.08L405.198 318.762L406.295 315.907L411.782 312.614H413.757L415.513 305.367L422.536 300.097L421.878 295.924L416.611 289.336L411.343 287.58L408.49 284.505L405.856 285.384L402.564 284.725L386.104 285.603L378.203 289.776L377.764 291.972Z" fill="#808080" stroke="white" stroke-width="0.7"/>
<path d="M360.207 366.195L354.72 365.097L356.256 362.023L354.94 360.485L352.525 361.803L348.136 361.144L347.258 363.56L344.405 360.925L344.844 358.948L339.357 358.729L335.846 358.07L334.529 355.874L332.993 354.556L333.212 349.506L331.456 345.553L330.578 336.989L330.139 334.793L327.945 331.718L328.164 328.864L328.384 326.668L325.75 322.056V320.739L327.067 318.982L329.7 320.08L328.899 321.983L329.63 323.593L329.262 322.056L330.578 318.323L334.968 316.566L340.455 315.029L343.747 311.955L348.355 309.759L355.159 308.881L359.11 308.441L361.743 310.857H359.11L360.646 313.053L364.377 314.81L365.913 315.029L370.522 311.516H375.131L379.52 311.296L385.885 313.492L392.469 313.712L394.225 312.175L397.297 313.931L398.834 317.006L399.492 320.08L401.687 327.327L401.467 333.036L398.834 336.11L397.736 339.624L400.37 341.82L399.712 345.773L400.37 349.506L399.273 350.604L402.565 358.29L403.223 361.583L402.126 364.219L397.736 367.293L394.005 371.685L393.127 374.54L388.958 375.638L384.349 371.904H382.373L379.301 373.222L376.009 373.002L371.4 373.881L368.327 371.465L364.596 373.002L361.524 369.269L360.207 366.195Z" fill="#808080" stroke="white" stroke-width="0.7"/>
<path d="M344.624 380.249L342.649 380.03L340.015 378.492L333.87 377.614L333.431 380.688L329.7 382.665L324.872 380.908L316.093 372.563L314.337 369.489L314.557 366.415L312.582 362.242L317.19 361.803L321.799 359.168L325.53 356.972L327.725 356.752L328.383 353.678L329.92 353.898L332.334 356.752L332.992 354.556L334.968 356.972L335.845 358.07L344.844 358.948L344.405 360.925L347.258 363.56L348.136 361.144L352.525 361.803L354.939 360.485L356.256 362.023L355.378 365.317L360.207 366.195L361.523 369.269L361.304 371.904L359.768 374.1L354.72 377.394L349.453 378.053L347.697 379.81L344.624 380.249Z" fill="#808080" stroke="white" stroke-width="0.7"/>
<path d="M322.897 383.104L317.629 387.935L318.507 391.668L317.41 393.425L312.143 392.986L307.534 394.962L305.339 394.523L304.022 396.279L300.73 394.962L297.219 395.401L295.243 395.84H292.829V398.695L294.146 399.793L296.121 400.671L297.657 400.452L300.072 401.55L299.852 402.867H302.925L306.436 401.769L309.289 400.891L311.265 399.354L313.459 399.573L314.996 401.33V403.526L318.068 403.746L321.58 404.624L323.555 405.722L330.139 407.04L335.845 404.405L338.04 402.867L341.552 402.209L343.966 399.134L345.721 393.864L348.794 393.205L349.672 389.252L347.916 387.715L348.575 384.641L347.697 379.81L344.624 380.249L342.649 380.029L340.015 378.492L333.87 377.614L333.431 380.688L330.578 382.664L326.628 381.567L322.897 383.104Z" fill="#808080" stroke="white" stroke-width="0.7"/>
<path d="M337.162 475.554L334.967 475.993L332.114 474.456L331.236 471.381L329.7 469.405L327.066 470.503L325.311 467.868L325.091 465.452L322.457 463.696L317.629 463.476L313.679 461.28L310.167 457.327L307.533 455.131L304.68 452.935L302.266 450.081L298.096 446.567V440.418L296.779 437.783L295.243 435.368L293.487 433.391L291.951 433.831L289.537 431.854L286.464 431.415L283.392 432.293L281.855 435.368L279.441 434.27L279.222 431.854L276.149 431.635L273.735 430.317L273.077 424.388L271.76 422.412L274.393 418.679L273.954 412.53L279.88 410.334H281.416L283.611 407.04L286.025 410.114L288.001 412.749L289.537 410.773L288.878 407.918H294.365L296.56 407.699L300.291 404.185L300.949 402.648H304.461L308.631 401.111L310.606 399.574H313.459L314.995 401.33V403.526L318.068 403.746L321.58 404.624L323.555 405.722L321.36 410.114L323.335 414.506L323.774 416.922H321.36L317.19 417.141L315.434 418.459L314.337 419.337H311.264L312.362 421.314L312.581 423.729L311.484 426.584V429L312.581 432.513L315.434 434.929L318.726 437.125L320.921 437.344L322.238 440.418L322.677 444.591L324.433 447.446L325.75 450.739L330.139 454.033C330.139 454.033 333.65 456.01 334.309 456.449C334.967 456.888 339.796 457.767 339.796 457.767L339.137 460.182L340.674 462.598L345.502 464.135L349.891 466.55L353.842 468.527L356.256 470.503L358.67 473.358L359.329 475.554L357.792 478.189L355.159 475.993L352.744 473.797L350.769 472.919L348.794 470.942L346.599 472.479L345.063 476.213L343.966 478.189L347.038 480.824L348.794 482.142L348.136 486.094L345.941 487.192L343.966 488.51L344.405 492.243L343.746 494.659L341.551 495.757L338.698 496.635L337.601 494.219L335.406 494.878L335.626 497.074L334.309 499.929V503.003L334.967 505.638L333.431 507.615L329.7 508.493L327.066 504.321H323.335L321.58 502.125L318.946 501.686L317.849 499.929L313.898 499.709L313.02 496.415V494.439L316.532 494.219L319.165 494L321.36 494.219L322.896 495.757H326.408L329.7 495.098L332.773 494.219H334.967L336.943 493.121L338.698 491.145L340.015 488.949L341.112 487.851L340.454 485.216L340.015 481.702L338.918 480.385L338.479 476.652L337.162 475.554Z" fill="#808080" stroke="white" stroke-width="0.7"/>
<path d="M288.511 463.915L285.584 465.818L283.096 467.868L281.634 467.135L280.171 465.963L280.465 469.916L281.927 470.795L282.366 474.601V477.237L283.39 477.53L281.927 479.726V482.8L283.39 486.46L285.291 487.484L287.925 485.288L290.852 484.994L292.608 483.677L291.875 478.113V474.454L290.852 473.282L292.901 472.404L292.755 469.914L291.584 467.864L291.73 465.962L290.558 464.644L288.511 463.915V463.915Z" fill="#808080" stroke="white" stroke-width="0.7"/>
<path d="M274.759 412.676L273.735 411.065L273.15 407.551L270.81 406.379L267.444 407.551L266.712 408.575L268.322 404.477L271.249 399.5L273.298 396.571L276.516 394.521L277.833 393.936L282.222 394.669L283.978 394.962L286.612 393.06H290.708L293.048 393.353L292.903 395.256L292.61 396.866L292.829 398.697L295.243 401.258L297.657 400.454L299.633 401.406L300.365 403.748L296.56 407.701H289.244L289.537 410.775L288.001 412.751L285.002 408.579L283.1 407.701L281.784 410.336H279.882L274.759 412.676V412.676Z" fill="#808080" stroke="white" stroke-width="0.7"/>
<path d="M276.953 393.06L276.66 388.083L277.831 383.837L280.611 380.616L282.512 376.957L275.635 376.518L271.978 375.2L269.198 374.468L268.32 372.857L268.614 367.88L267.443 365.391L266.71 363.634L268.905 359.827L266.565 357.485L265.541 355.728L266.126 352.654L266.858 349.434L266.712 345.774L266.566 343.724L269.493 343.285L271.834 341.528L273.589 338.6L274.174 335.086V331.866L275.198 330.109L274.466 328.207L271.832 327.474L271.247 325.863L273.149 324.252L275.05 322.789L279.146 322.643L280.024 323.667L280.902 325.863L282.658 325.57L282.365 322.789L282.949 321.032H285.144L287.632 321.765L288.51 320.741L286.608 318.838L286.754 317.227L285.876 315.177L284.853 314.005L286.754 313.127L287.778 311.955L286.168 310.052L284.558 308.002L284.851 306.539L290.264 306.685L291.874 309.466L293.191 308.881L294.653 310.198L294.214 312.248L295.97 313.712L298.165 314.005L299.921 314.738L302.261 314.444L302.7 316.201L299.773 318.104L299.919 320.593L303.724 319.13L306.212 319.423L307.528 316.055L311.333 315.762L313.089 313.42L314.845 312.981L316.6 314.883L318.649 314.59L317.478 311.955L320.551 310.344L323.185 313.273L322.746 315.175L319.234 315.029V316.786L321.283 318.104L323.623 317.519L326.55 318.69L325.672 321.765L327.574 325.572L328.306 327.183L327.574 331.72L330.134 334.795L331.231 344.603L333.133 349.873L332.987 354.558L332.329 356.754L329.475 353.973L328.378 353.68L327.865 356.461L325.086 356.9L317.185 361.805L312.576 362.244L314.551 366.417L314.332 369.491L315.575 372.272L324.867 380.91L325.818 381.934L322.891 383.106L317.624 387.937L318.502 391.67L317.039 393.646L312.137 392.988L307.528 394.964L305.334 394.525L304.017 396.282L300.36 395.11L295.238 395.842L293.189 395.697L293.043 393.355L287.337 393.061L283.971 394.964L277.533 394.086L276.953 393.06V393.06Z" fill="#808080" stroke="white" stroke-width="0.7"/>
<path d="M271.247 325.863L268.32 327.62L262.76 327.326H258.955L259.248 330.547L263.053 333.475L263.638 337.574L259.833 341.381L257.784 337.574L257.199 333.182L255.444 329.962L253.981 332.597L253.396 336.695V340.209L250.763 341.966L251.347 345.773L254.566 346.358L253.981 347.821L256.321 349.284H259.248L261.297 351.919L265.541 355.726L266.565 350.456L265.687 343.136L269.491 343.281L272.71 341.085L273.588 338.596L274.172 331.862L275.196 330.106L274.464 328.203L271.83 327.47L271.247 325.863V325.863Z" fill="#808080" stroke="white" stroke-width="0.7"/>
<path d="M251.641 348.994L248.129 350.458L246.667 351.336L244.911 350.751L241.984 353.386L239.644 354.558L241.399 357.193L243.448 357.487L244.911 359.828L249.007 360.122L252.519 364.807L253.397 367.442L257.201 365.1L257.786 368.029L260.713 370.371L263.346 373.006L264.224 367.736L266.273 364.516L268.907 359.83L265.541 355.732L261.297 351.925L259.248 349.29H256.322L253.981 347.826L251.641 348.994V348.994Z" fill="#808080" stroke="white" stroke-width="0.7"/>
<path d="M268.907 373.589L266.274 373.296L263.347 373.002L264.225 367.732L266.274 364.512L268.614 367.88L268.907 373.589Z" fill="#808080" stroke="white" stroke-width="0.7"/>
<path d="M280.246 434.783C280.246 436.118 279.164 437.198 277.832 437.198C276.499 437.198 275.417 436.118 275.417 434.783C275.417 433.448 276.499 432.367 277.832 432.367C279.164 432.367 280.246 433.449 280.246 434.783Z" fill="#808080" stroke="white" stroke-width="0.7"/>
<path d="M229.841 351.922H224.135L221.94 349.726L225.89 347.09L228.963 342.698L232.036 342.259V334.793L227.207 331.279L222.379 331.719L221.501 334.354L219.306 331.719L220.184 327.327L218.428 323.813L217.99 319.86L213.6 313.712L208.333 308.881L205.699 305.806L204.382 297.023L199.115 291.313L196.481 291.752H193.848L196.042 288.678L198.237 288.239L196.92 283.847L199.993 281.212L201.749 275.502L204.382 272.867L203.066 268.475H193.409L188.142 269.793L187.264 266.279L190.336 262.326L194.726 258.374L194.287 254.421L190.482 255.299L186.97 256.471H181.118L179.363 257.934V261.741L176.144 264.083L176.438 267.303C176.438 267.303 173.219 267.888 173.804 269.06C174.389 270.232 174.682 274.037 174.682 274.037L170.586 271.695L170.001 269.06L166.783 269.353V266.133L170.001 264.376L171.172 258.521L168.245 260.571L164.734 262.621L164.44 265.842L165.025 268.183L167.366 270.819L167.072 273.16L169.121 274.917L171.17 277.552L173.511 278.724L174.389 275.504L175.266 277.846L174.095 281.066C174.095 281.066 171.755 281.944 172.046 282.823C172.338 283.701 174.095 286.336 174.095 286.336L177.607 285.751L179.07 283.701L179.363 286.629L176.729 289.558L176.436 292.487L175.851 296L174.095 302.149L179.363 298.635L179.07 293.072L181.703 297.463L182.874 302.149L181.703 304.199L180.241 307.419L181.703 310.054L184.921 309.176L186.677 306.834L190.482 308.006H192.238L191.653 311.226L193.994 314.74L194.287 317.375L197.214 316.79L196.042 321.767V324.695L198.383 327.037L193.7 327.915H188.726L184.337 326.452L186.093 330.259L182.874 333.187C182.874 333.187 180.825 335.823 181.703 335.529C182.581 335.236 186.386 335.529 186.386 335.529L186.679 339.336L182.874 343.435L178.192 346.07L180.532 350.168L184.337 348.411L187.264 348.996L189.019 349.581L193.116 351.338L195.749 350.46L191.945 352.51L187.262 353.095L185.799 356.902L182.581 359.244L179.947 363.051L173.509 368.321H178.483L181.995 365.686L184.921 364.514L189.896 366.564L192.529 361.587L195.456 361.002H200.139L202.479 361.587L207.746 358.952H211.258L217.11 359.245L221.499 358.952L226.473 355.732L229.985 353.975L229.841 351.922V351.922Z" fill="#808080" stroke="white" stroke-width="0.7"/>
<path d="M210.38 223.386L207.162 225.728V229.534L204.235 231.585L207.453 233.341L207.16 235.976L210.378 230.706L211.549 226.314L210.38 223.386V223.386Z" fill="#808080" stroke="white" stroke-width="0.7"/>
<path d="M196.334 246.224L193.407 247.102L193.992 250.031L198.966 249.737L196.334 246.224V246.224Z" fill="#808080" stroke="white" stroke-width="0.7"/>
<path d="M167.95 303.904L165.901 304.489L164.439 304.782L162.976 307.417L160.636 310.052H158.002L159.173 313.859L162.391 316.788L166.488 314.153L167.659 312.981L169.999 315.616L174.389 317.079L176.144 314.444L174.682 310.346V307.417L172.048 303.904H167.95V303.904Z" fill="#808080" stroke="white" stroke-width="0.7"/>
<path d="M183.459 314.738L182.288 319.129L186.971 315.616L185.8 313.274L183.459 314.738Z" fill="#808080" stroke="white" stroke-width="0.7"/>
<path d="M169.926 340.722V337.428L172.779 332.597L172.56 329.083L171.243 325.131L171.462 320.299L174.389 317.079L170 315.616L167.659 312.981L166.488 314.153L162.392 316.788L158.954 313.274L158.003 310.054H160.636L164.441 304.784L163.783 301.855H160.49L158.076 303.173L153.906 304.051L151.931 306.686V310.419L155.004 310.859V313.274L153.248 314.372L152.37 316.129L149.298 315.69L146.664 315.031L144.469 315.251L143.591 318.764L141.397 322.278L141.836 325.572L143.591 327.328L146.005 328.646L149.078 329.524L146.444 332.379L145.347 335.893L149.956 336.112L142.494 338.088L141.616 341.163L139.421 342.041L142.713 343.359L139.421 345.335L141.397 347.311L144.689 345.335L141.616 349.288L145.347 348.19L143.372 351.264L148.859 351.923L151.931 349.727L155.443 346.213L158.076 347.092L162.905 343.359L164.88 341.822L168.611 342.48L169.926 340.722V340.722Z" fill="#808080" stroke="white" stroke-width="0.7"/>
<path d="M428.023 227.85L423.195 227.63H415.733L410.685 228.728L407.174 230.924L403.881 233.12L398.834 234.877L393.566 235.975L387.421 233.779L390.055 230.046L387.421 227.85L383.032 224.995L379.959 223.897L380.398 218.627L381.934 216.431V212.258V207.427L380.398 202.377L379.959 199.302L380.179 197.546L378.862 194.471L379.959 189.42L384.129 184.809L385.226 181.295L389.177 176.684L393.566 172.072L396.639 169.218L401.248 164.826L402.565 161.312L406.076 154.505L410.905 153.626L411.343 152.089L410.466 147.697L410.905 143.086L408.051 139.133L404.979 136.498L402.345 134.741L400.589 129.471L399.712 126.616L401.248 119.809L399.273 115.417L399.053 109.488L400.589 104.876L398.614 103.119V96.5314L400.589 93.6766L397.956 91.2611L395.542 89.2847L393.786 85.5516L388.738 83.3556L386.104 80.0617L380.398 75.011L378.862 72.815L380.398 65.788L383.471 66.2272L386.104 70.6191L387.421 75.4502L389.177 79.4029L395.542 81.5989H399.492L401.687 77.8657L404.32 79.6225L408.051 82.0381L411.782 79.4029L414.197 73.913L415.952 69.0819L416.172 65.1292L417.708 58.5413L422.537 52.3926L427.145 51.9534L432.413 49.9771L435.046 53.271L437.899 56.1257L441.85 57.2237L440.753 62.2744L438.777 67.1055L438.119 72.1562L434.827 77.2807V81.0876L437.461 86.9429L444.19 93.97L446.239 100.119L447.776 101.802L439.875 115.417L448.288 137.889L446.826 139.646L446.241 146.38L446.826 153.113L449.166 156.92L449.751 163.069L452.385 167.168L448.58 173.023L452.091 178.587L456.481 180.343L457.652 185.614L459.701 187.37L458.969 191.836L447.702 202.303L440.533 215.333L433.656 221.042L429.56 226.606L428.023 227.85Z" fill="#808080" stroke="white" stroke-width="0.7"/>
<path d="M376.887 71.717L372.058 72.5954V77.4265L371.18 80.9401L372.058 84.4536L368.547 84.0144L363.718 83.136L359.768 80.9401L357.573 84.8928L356.695 91.4807L351.428 93.2374L346.6 95.8726L345.283 102.9L342.649 106.413V111.244L338.26 119.589L335.626 126.616L332.992 131.008L329.042 131.447L327.725 146.38L324.214 153.846L322.019 159.555L327.286 163.947L324.652 167.461L316.313 167.9L313.679 174.049L312.801 181.076L310.167 187.664L312.801 196.008L312.362 203.475L314.118 211.38L314.996 215.772L314.118 218.846L314.557 228.069L313.24 235.096L308.631 241.465L307.534 249.37L303.364 246.955L304.242 254.201L304.9 259.691L306.217 265.401L308.192 268.255L309.07 272.428L310.606 274.843L313.459 280.772L316.313 284.505L316.093 288.239L313.679 291.093L315.654 294.607L317.849 298.34L319.385 300.756L325.75 299.218L327.067 294.826L329.261 290.215L335.845 289.776L339.796 289.995L342.21 282.968L343.307 278.796L343.966 271.769L346.161 267.816L345.722 262.107L345.941 257.715L344.405 255.738L348.136 253.542L353.184 250.029L354.062 251.127L356.695 247.174L360.426 243.441L360.646 240.806L361.524 236.414L360.426 232.681L357.793 228.289L354.501 226.532H352.306L350.111 222.14L348.794 218.188L349.233 215.333L351.428 208.964L350.77 205.451L351.428 199.961L351.647 196.887L353.842 194.91L354.72 190.518L357.134 190.299L360.865 183.711L363.499 180.197L366.352 179.319L368.766 175.586L374.472 174.488L380.179 168.778L380.837 164.387L383.69 163.289L380.618 159.116C380.618 159.116 380.179 156.042 380.398 155.383C380.618 154.724 383.91 151.43 383.91 151.43L382.373 146.599L383.032 143.525L385.885 142.866L387.202 137.157L390.055 135.619L392.03 136.937L395.542 136.278L400.37 135.839L401.467 134.961L402.345 134.741L399.712 126.616L401.248 119.809L398.614 115.856L399.053 109.488L400.589 104.876L398.614 103.119V96.5314L400.589 93.6766L395.542 89.2847L393.786 85.5516L388.738 83.3556L386.104 80.0617L378.862 72.815L376.887 71.717Z" fill="#808080" stroke="white" stroke-width="0.7"/>
<path d="M363.499 265.181L359.109 266.938L355.378 270.012L356.037 277.259L357.134 279.894L361.524 272.867L361.743 270.012L363.499 265.181Z" fill="#808080" stroke="white" stroke-width="0.7"/>
<path d="M347.258 273.306L344.405 279.235L342.869 288.238L347.039 280.553L347.258 273.306Z" fill="#808080" stroke="white" stroke-width="0.7"/>
<path d="M463.21 59.4196L457.43 58.7609L454.138 61.4698L448.286 60.298L446.531 63.8116L441.557 66.7401L439.801 72.5954L438.119 72.1562L438.777 67.1055L440.752 62.2744L441.85 57.2237L437.899 56.1257L432.413 49.977L427.145 51.9534L422.536 52.3926L417.708 58.5413L416.172 65.1291L415.952 69.0819L411.782 79.4029L408.051 82.038L401.687 77.8657L400.15 81.5988H395.542L389.177 79.4029L387.641 74.5718L385.007 69.0819L382.593 65.7879H380.398L378.862 72.815L376.887 71.717L372.058 72.5954L371.839 78.0853L371.18 80.94L372.058 84.4536L363.718 83.136L359.768 80.94L358.012 84.0144L356.695 91.4806L346.6 95.8726L345.283 102.241L342.649 105.754V111.244L338.26 119.589L335.626 126.616L332.992 131.008L329.042 131.447L327.725 146.38L322.019 159.555L327.286 163.947L323.994 167.9L316.313 168.778L313.679 174.049L312.801 181.735L310.167 187.664L312.801 196.008L312.362 203.475L314.996 215.772L314.118 218.846L314.557 228.069L313.24 235.096L308.631 241.465L307.534 249.37L299.852 245.417L298.974 239.927L296.999 243.221L296.56 247.613L290.854 250.907L286.684 255.519L281.636 261.667L276.588 263.424L271.321 262.107L266.493 261.009L262.762 255.958L259.031 252.225L263.859 250.468L263.42 248.053L265.176 244.1L259.47 246.076L258.592 240.586L265.395 238.171L262.981 236.194L261.664 233.559L257.714 237.732L260.128 231.802L258.372 229.826L258.153 227.411L260.348 224.117L256.178 222.579L257.495 219.725L266.054 219.066L268.468 218.846L265.176 216.431L259.47 217.968L256.617 214.674L259.031 212.698L258.372 209.184L257.056 206.11L260.128 203.694L263.42 204.792L262.762 201.059L266.932 199.302L262.323 198.204L266.054 195.13L269.565 193.593L272.638 195.569L276.15 194.032L274.174 190.738L275.272 188.542L279.222 188.103L276.808 186.126L278.344 183.711L282.734 183.052L286.026 182.833L288.22 179.758L289.098 178.001L292.171 177.123L294.805 178.88L298.536 178.441L299.413 175.805L295.024 176.464L293.927 172.292L294.805 166.802L300.072 162.63L303.803 158.457L306.875 155.163L303.803 153.187L308.412 150.113L311.704 147.917L311.045 145.282L311.704 139.572L314.118 137.815L314.557 135.18L312.362 133.643L316.313 129.251H320.263L318.068 126.396L319.605 122.224L321.141 118.93L323.994 116.295L324.214 114.099L327.725 111.025L332.334 109.268L329.481 108.17L331.676 103.339L335.407 102.9L333.212 97.6293L337.382 92.1394L342.43 88.6259L338.04 86.6495L329.042 90.1631L325.091 91.261L318.727 95.8726L315.435 99.6057L318.068 91.4806L325.969 89.7239L328.384 87.7475L332.773 83.7948L333.651 80.94L328.603 81.1596L331.676 76.1089L334.09 75.4501L334.529 78.9637L336.284 76.3285L339.138 74.5718L339.577 79.4029L341.991 74.3522L346.161 78.7441L349.453 73.6934L351.428 70.3994L347.258 71.717L351.867 64.4703L355.378 63.1528L357.573 68.8623L359.109 63.8116L362.621 66.6663L361.524 61.1764L361.304 55.2473L366.352 55.4669L368.547 59.8588L372.278 53.271L374.911 61.6156L376.009 53.4906L378.642 52.6122L381.715 50.8554L386.763 55.9061L385.007 49.7574L380.618 46.6831L386.982 44.9263L392.908 47.7811L395.103 54.5885V44.4871L398.834 42.5108L400.809 37.8992L405.198 35.2641L405.418 30.6526L410.904 29.335L414.635 31.531L411.343 36.8013L411.124 43.8283L415.513 39.2168L422.097 29.9938L421.878 39.2168C421.878 39.2168 421.439 43.6087 421.658 42.95C421.878 42.2912 424.951 36.3621 424.951 36.3621L428.243 30.8722L428.901 27.3586L434.168 29.1154L436.802 31.3114L432.193 36.3621L432.632 42.5108L435.705 33.7269L439.436 31.7506L442.728 34.8249L446.239 37.2405C446.239 37.2405 449.97 38.3384 449.312 38.7776C448.653 39.2168 447.995 40.754 447.995 40.754L453.482 41.852L454.799 44.0479L453.921 46.2439L447.995 48.6594L443.606 49.7574L435.705 49.0986L440.972 51.075L445.142 53.4906L447.337 55.4669L450.409 57.4433L453.921 56.3453L460.505 55.2473L460.944 52.8318L466.65 55.0277L469.503 57.6629L469.064 61.6156L465.553 61.396L463.21 59.4196V59.4196Z" fill="#808080" stroke="white" stroke-width="0.7"/>
<path d="M152.149 468.087L151.49 474.895L149.735 479.287L147.979 484.337L147.759 489.169L149.296 491.145L152.368 490.047L151.49 494.439L151.271 500.368L149.735 503.662L154.782 504.101L159.611 504.54L164 502.344L164.439 495.537L167.073 493.121L165.317 490.486L166.195 483.898L163.561 479.506L166.634 477.969L168.17 473.138L168.609 468.527L168.389 463.037L171.901 461.06L172.779 459.303L170.584 457.107L170.365 455.131L167.951 454.692L165.097 455.79L158.074 455.351L157.416 452.276L152.588 456.668L151.929 461.06L152.368 465.452L152.149 468.087Z" fill="#808080" stroke="white" stroke-width="0.7"/>
<path d="M22.661 496.415L19.1494 497.733L24.6362 500.807L27.0504 497.513L22.661 496.415Z" fill="#808080" stroke="white" stroke-width="0.7"/>
<path d="M208.04 438.296L205.699 442.395L199.115 441.956L192.97 441.077L188.142 440.638L183.752 441.516L168.828 440.638L162.244 439.76L159.171 438.003L155.002 439.321L154.124 441.297L147.54 442.175V446.348L149.734 448.544L151.929 451.398L152.368 456.01L157.416 452.277L158.074 455.351L165.097 455.79L167.95 454.692L170.364 455.131L170.584 457.108L172.779 459.304L171.242 461.5L168.389 463.037L168.609 468.527L168.17 473.138L166.633 477.969L163.561 478.848L166.195 483.899L165.317 490.486L167.072 493.122L164.439 495.537L164 502.345C164 502.345 166.633 502.564 167.95 504.321C169.267 506.078 171.023 508.493 171.023 508.493C171.023 508.493 170.364 512.226 172.559 513.105C174.754 513.983 176.29 513.764 176.29 513.764L179.363 509.372H183.752L187.264 506.297L192.531 506.078L195.384 508.274L198.676 507.176L202.407 506.956L206.358 501.686L209.65 499.929L212.722 499.051L215.795 492.902L219.526 488.29L216.453 484.557L216.673 478.848L220.843 474.675L224.574 469.186L225.232 467.209L228.085 463.915L232.694 463.476L237.523 460.182L242.131 457.108L243.009 453.155L243.448 450.007L238.839 450.081L233.353 448.983L230.061 446.787L226.549 446.348H219.965L216.234 445.908L209.795 443.858L210.38 441.223L208.04 438.296V438.296Z" fill="#808080" stroke="white" stroke-width="0.7"/>
<path d="M242.131 476.213C241.253 476.652 236.644 479.067 236.644 479.067L235.767 480.824C235.767 480.824 238.181 481.263 238.839 481.703C239.498 482.142 241.912 483.679 241.912 483.679L245.204 479.946L243.229 478.628L242.131 476.213Z" fill="#808080" stroke="white" stroke-width="0.7"/>
<path d="M246.96 475.993L250.691 478.189L252.666 475.773L249.374 474.017L246.96 475.993Z" fill="#808080" stroke="white" stroke-width="0.7"/>
<path d="M229.402 483.679L226.988 487.192L229.841 490.047L231.816 485.655L229.402 483.679Z" fill="#808080" stroke="white" stroke-width="0.7"/>
<path d="M409.66 554.536L404.538 551.755L396.637 550.438L394.003 546.485L386.102 543.411L376.007 544.289L371.617 549.559V557.465L369.423 562.735L363.277 567.127L357.571 562.296L341.33 559.222L335.185 556.147V550.438L327.284 546.485L319.383 544.728H313.238L307.093 542.532L306.215 546.924L296.558 553.073L296.119 563.174L291.291 564.053L290.852 567.127L292.608 572.397L295.241 578.107L294.364 583.377L294.803 588.647V596.114L290.852 600.945L294.803 604.897L298.753 615.438H303.581L308.849 621.148L311.482 624.661L322.456 627.296L326.406 630.81L340.891 625.1L401.026 656.283L402.343 652.33L409.805 653.209L409.66 637.398L409.953 575.032L408.49 568.445L407.612 566.249L408.783 564.492L409.368 560.978L407.832 557.684L408.051 555.708L409.66 554.536V554.536Z" fill="#808080" stroke="white" stroke-width="0.7"/>
<path d="M291.293 564.053L288.221 549.12L282.953 545.167L281.636 541.215L277.247 531.992L282.953 523.647L282.514 510.471L281.636 507.836L282.514 506.519L286.465 504.762L289.537 503.005L294.805 502.127L296.999 505.201L301.389 507.397L300.072 510.471L299.633 514.863L303.584 520.573L301.389 524.525L296.999 528.039L293.049 531.113L296.122 533.748L301.389 532.87L303.145 535.944L303.584 538.58L303.145 541.654L307.095 542.532L306.217 546.924L296.561 553.073L296.122 563.174L291.293 564.053Z" fill="#808080" stroke="white" stroke-width="0.7"/>
<path d="M243.887 660.236L262.762 654.526L309.728 622.904L303.583 615.438H298.755L294.804 604.898L290.854 600.945L294.804 596.114L294.365 583.377L295.243 578.107L290.854 567.127L291.293 564.053L288.22 549.12L282.953 545.167L277.247 531.992L282.953 523.647L282.514 510.471L281.636 507.836L278.125 505.64L271.979 504.762L266.712 505.201L261.445 506.079H253.983L248.277 504.762L242.57 506.518L235.986 507.836L229.402 508.714L223.696 510.471L217.551 515.742H211.406L203.944 522.329L207.016 527.6L208.333 541.215L211.406 543.411L210.528 548.681L200.432 550.438L197.359 553.073L192.092 554.39L192.531 560.1L182.874 565.37L178.924 570.201L172.34 572.397L169.706 575.911L165.756 574.154L157.855 578.546L153.026 581.181L153.465 592.6L232.475 647.06L234.231 650.134L243.448 653.648L243.887 660.236Z" fill="#808080" stroke="white" stroke-width="0.7"/>
<path d="M152.588 587.769L120.106 587.33L130.641 582.938L135.469 578.546L142.053 575.911L143.809 566.688V557.025L146.442 551.755L149.515 548.681L148.637 546.485L154.782 539.458L160.927 536.383L168.389 531.992L171.462 525.404L173.657 516.62L175.851 515.741L179.363 519.694L182.874 521.89L188.142 521.451L192.092 521.89L196.921 522.329H203.944L207.016 527.6L208.333 541.215L211.406 543.411L210.528 548.681L200.432 550.438L196.043 553.512L192.092 554.39L192.531 560.1L182.874 565.37L178.924 570.201L172.34 572.397L169.706 575.911L165.756 574.154L153.027 581.181L152.588 587.769Z" fill="#808080" stroke="white" stroke-width="0.7"/>
<path d="M519.982 439.175L533.734 438.882L540.173 442.395L550.707 444.737L555.39 448.544L565.047 448.837L568.265 453.814L576.166 455.864L580.849 460.256L584.067 461.428L587.578 457.621L584.067 450.301L579.238 443.273L580.994 437.125L578.361 435.807L576.166 431.415L572.215 430.098L576.605 425.267L580.116 416.044L581.433 412.53L584.945 416.483L587.872 413.702L588.456 409.31L591.968 404.625L589.919 401.111L577.335 389.107L574.408 384.13L578.798 360.999L587.87 367.441L589.332 363.049L587.87 358.95L590.503 355.437L590.649 349.727L596.062 350.46L602.792 346.653L603.67 343.724L608.937 345.481L608.059 349.288L611.864 346.653L615.96 346.946L620.643 345.483L625.617 346.946L631.469 352.802L632.64 358.657L635.42 354.119L637.321 354.852L641.126 357.487L644.93 358.072L648.735 353.68H654.88L658.099 355.73L664.829 353.973L667.462 358.365L672.436 361.001L676.241 358.072L682.386 360.414L689.702 351.63L686.191 349.288L681.069 348.849L678.875 344.603L675.656 342.553L682.386 339.624L681.508 331.134L692.043 331.427L687.215 323.376L690.287 320.595L685.605 318.253L687.654 313.568L692.628 314.74L710.185 311.811L715.453 312.396L722.476 305.954L735.059 304.782L739.449 302.732L745.594 296.583L751.3 298.779L758.177 299.803L760.079 306.246L761.98 308.587L761.102 314.151L764.907 317.08L766.078 314.151L770.613 315.029L771.93 317.665L776.026 316.201L776.904 317.958L777.489 322.35L787.73 322.935L790.949 318.836L794.46 318.251L798.85 310.053L804.117 309.759L801.483 314.444L812.75 328.205L821.09 336.111L827.674 350.604L829.576 354.85L835.427 348.116L838.646 349.873L842.157 356.315L849.18 356.022L854.448 354.265L859.13 354.85L864.104 364.806L868.494 364.512L872.298 369.783L876.395 369.198L880.784 366.856L883.124 371.248L881.953 373.883H889.854L893.073 369.93L899.802 369.491L901.851 364.806L905.802 365.977L910.191 362.903L916.482 361.879L920.578 358.365L923.505 358.95L924.383 357.194L928.188 361.001L938.138 360.707L942.673 365.099L944.868 366.856L951.891 366.271L963.596 369.199L967.108 368.028L968.279 359.244L965.061 357.78L964.476 351.632L967.11 343.433L970.328 345.775L972.377 339.626L979.985 343.579L990.812 346.653L992.275 349.288L998.859 349.727L997.836 355.437L1000.76 361.292L1007.64 363.342L1011.88 362.757L1015.1 360.707L1024.47 361.879L1026.51 363.342L1032.37 363.049L1038.37 368.613L1045.83 371.833L1053.73 373.444L1063.39 375.2L1071.58 373.005L1079.63 369.491L1082.7 365.538L1084.45 362.025L1090.6 360.414L1094.55 360.707L1097.62 365.099L1098.5 367.441L1103.47 366.269L1109.47 368.172L1117.23 372.709L1120.89 368.611L1123.96 365.537L1127.18 365.391L1127.03 360.266L1130.4 352.507L1135.66 346.358L1137.71 338.746L1134.5 334.793L1132.74 333.915L1137.42 327.327L1144.59 326.448L1151.76 326.155L1158.2 324.253L1164.34 327.766L1171.07 331.134L1171.95 329.377L1177.51 334.354L1184.1 350.604L1190.1 363.341V368.317L1192.44 370.659L1204.43 372.709L1210.58 381.787L1212.63 381.202L1211.75 385.009L1214.38 388.376V392.622L1220.09 394.964L1228.43 391.89L1239.4 388.815L1247.45 386.474L1245.11 391.159L1244.23 396.429L1241.6 399.358L1240.72 405.506L1236.62 413.119L1234.28 419.852L1231.65 422.487L1231.94 425.416L1224.04 422.635L1221.11 423.659L1218.77 427.027L1215.7 427.466L1217.9 436.25L1216.73 443.277L1216.43 445.912L1210.58 449.571L1213.36 452.5L1214.16 449.865L1216.8 450.304L1219.65 448.767L1220.97 445.034L1221.41 442.618L1222.28 441.081L1222.94 445.034L1225.8 443.277L1227.11 445.473L1231.28 447.23L1234.57 448.547L1238.52 445.912L1242.04 444.814L1247.3 440.642L1250.16 436.469L1254.33 430.98H1256.08C1256.08 430.98 1258.72 423.513 1259.37 423.074C1260.03 422.635 1265.96 418.902 1265.96 418.902L1270.57 410.118L1273.2 404.848L1275.18 399.797L1277.37 398.26L1278.69 394.087L1282.2 389.915L1285.05 385.962L1287.69 382.449L1287.03 376.081L1289.22 374.104L1289 368.395L1288.56 362.685L1290.54 354.341L1290.98 349.07L1294.27 345.557L1295.81 342.482L1297.78 342.263L1298.22 347.094L1301.29 352.145L1301.07 359.611L1300.85 367.297L1301.07 376.739L1297.78 384.425L1299.98 385.304L1301.29 391.672L1299.76 395.625L1299.98 402.871L1298 406.385L1298.88 413.192L1301.51 416.267L1301.95 412.094L1302.39 408.361L1305.68 405.946C1305.68 405.946 1308.76 407.702 1309.19 408.361C1309.63 409.02 1312.27 412.314 1312.27 412.314L1312.49 408.581L1308.97 403.091L1307.44 399.358L1303.05 395.844L1304.15 390.574L1305.9 385.084L1306.34 380.473L1310.95 377.179H1315.78L1320.39 383.327L1322.8 382.229L1319.73 378.496L1316.22 372.567L1313.36 364.222L1311.83 356.976L1310.73 351.266L1310.29 347.094L1307.22 342.702L1308.32 338.09L1309.85 339.408L1308.97 329.307L1307.88 323.378L1306.56 320.084L1307.22 318.107L1305.68 314.155L1303.27 315.033L1300.2 315.253L1303.93 318.766L1303.71 322.499L1300.2 324.256L1296.9 325.793L1298.22 329.746L1299.1 332.601L1297.78 336.773L1297.12 339.408L1296.9 341.384H1294.49L1293.39 338.749L1295.59 338.53L1294.27 333.918L1292.95 332.161L1294.27 330.624L1294.49 327.55L1291.42 324.695L1288.13 322.719L1286.59 320.303L1282.64 317.009L1281.98 315.472L1278.91 317.009L1274.3 314.594L1274.52 319.644L1273.86 324.036L1271.45 323.597L1272.32 318.986L1269.03 321.182L1267.49 324.256H1263.11L1266.4 320.523L1265.08 318.766L1266.62 315.253H1262.23L1260.25 318.986L1259.81 315.692L1260.25 311.959L1257.4 309.982L1251.91 311.3L1248.4 309.104L1249.72 304.932L1254.11 302.296L1258.28 298.783L1262.89 293.732L1267.93 289.999L1271.45 283.411L1277.81 276.164L1282.2 272.431V267.161H1285.93L1289.22 260.134L1296.03 254.864L1301.51 249.813L1308.97 249.154L1319.29 248.715L1323.68 246.08L1326.97 245.201L1328.51 246.519L1331.14 246.08L1333.56 243.445L1337.94 244.982L1340.8 246.08L1344.97 244.982L1348.04 246.08L1349.8 247.178L1353.53 246.299L1351.99 244.103L1353.97 242.347L1354.41 238.174L1359.01 239.492L1365.38 242.712L1371.52 243.005L1374.74 244.762C1374.74 244.762 1380.89 247.397 1380.01 247.397C1379.13 247.397 1370.94 247.397 1370.94 247.397L1370.35 250.911L1374.74 252.961L1379.72 250.326L1384.11 251.204L1387.62 247.397L1392.59 250.033L1395.23 246.226L1402.25 247.104L1397.57 241.834H1393.76L1393.47 234.513L1395.52 236.563L1398.44 228.365L1404.3 224.558L1407.52 219.287L1413.08 215.774L1412.49 210.797L1424.49 207.283L1431.22 205.82L1432.68 207.87L1438.24 205.528L1436.78 213.14L1435.02 215.776L1435.61 221.339L1439.41 219.583L1437.37 225.438L1442.34 222.509L1447.31 218.411L1454.63 211.969L1458.14 209.04L1460.19 210.797L1460.48 204.648L1460.77 196.743L1464.58 194.108L1472.77 192.351L1476.87 196.743L1469.26 198.206L1468.09 205.527L1466.04 210.504L1466.34 214.895L1464.58 218.116L1463.7 223.093L1459.02 223.386L1452.87 227.193L1452.58 231.585L1441.17 241.832L1436.19 248.859L1429.17 257.35L1423.32 265.255L1418.64 266.427L1414.25 265.842V271.405L1411.91 276.676L1405.18 283.703L1404.01 299.22V310.054L1405.76 321.473L1409.27 334.942L1409.86 343.141L1411.03 351.632L1412.78 355.145L1409.57 357.78L1405.76 359.537L1400.79 363.344L1399.32 366.858V370.371L1397.28 373.591L1394.64 377.398L1391.13 381.497L1388.79 387.352L1384.69 389.987L1382.94 394.379L1380.6 398.771L1376.21 400.821L1372.99 404.92L1366.55 409.897L1361.28 411.36L1357.48 416.337L1353.09 419.851H1349.28L1345.19 418.972L1342.85 423.071L1336.7 427.756L1334.94 430.098L1332.02 429.513L1328.8 433.026L1327.92 436.246L1329.97 434.49L1333.77 432.439L1334.95 431.268L1338.46 428.339V431.559L1342.55 427.752L1346.07 424.824L1349.58 422.482L1353.67 421.019L1357.18 417.799L1358.65 419.555L1360.99 416.042L1365.08 413.407L1365.96 411.356L1374.45 405.793L1377.08 405.499L1379.71 402.279L1380.59 400.523L1383.23 396.131L1386.15 394.667L1385.86 392.032L1387.32 390.569L1388.49 389.105L1390.83 385.592L1392 382.957L1395.52 381.785L1394.93 379.735L1397.86 377.1L1400.2 375.049L1399.03 373.293L1400.78 368.316L1405.76 367.144L1407.51 362.167L1408.98 360.704L1411.02 358.362L1413.66 356.605L1417.75 353.677L1420.39 350.748L1423.02 347.528L1427.12 339.037L1426.24 332.595V330.839H1430.34L1434.14 328.788L1437.95 330.252L1437.36 322.346L1436.78 319.418L1442.92 311.806L1447.02 311.512L1449.36 312.391L1453.46 309.171L1451.7 303.9L1450.53 298.63L1452.87 292.775L1453.16 289.261L1458.72 286.333L1456.97 292.188L1460.48 294.238L1463.11 288.968L1461.36 285.748V282.234H1457.55L1459.31 273.744L1461.06 270.523L1456.38 267.303L1452.58 269.354L1453.16 262.62L1456.97 256.178L1459.31 250.322L1460.77 245.346L1462.24 240.075L1464.28 236.268L1469.26 233.34C1469.26 233.34 1468.38 236.56 1469.26 235.682C1470.14 234.803 1473.94 233.046 1473.94 233.046L1474.23 237.145L1481.55 230.996L1485.35 229.533L1484.18 237.438L1486.52 236.56L1492.67 229.239L1499.11 227.483L1505.84 226.311L1511.1 230.118L1515.2 235.973L1520.76 227.774L1527.2 222.504L1539.78 209.622L1547.97 203.766L1559.39 199.668L1568.46 193.813L1579.87 195.569L1583.67 199.376L1585.43 192.642L1584.26 185.909L1579.87 178.003L1576.36 173.905L1577.82 165.414L1577.24 163.073L1569.04 161.901L1569.34 154.874L1577.82 156.631L1582.51 155.167L1588.36 151.654L1595.09 144.333L1591.28 136.428L1590.11 131.742L1596.55 130.279L1600.94 128.229L1599.48 133.499L1602.11 140.82L1598.6 142.87L1607.67 143.455L1612.06 141.405L1617.62 144.04L1622.01 150.773L1620.55 152.237L1627.28 156.629L1632.25 155.75L1634.88 160.727L1637.81 165.413L1644.25 163.656V157.801L1648.64 152.824L1651.56 146.968L1647.47 141.991L1656.83 144.92L1658.88 141.406L1662.39 137.893L1669.12 133.501L1662.68 127.937L1654.2 120.325L1647.76 115.933L1643.37 116.518L1637.81 112.42H1632.54L1633.71 121.497L1631.08 117.983L1629.03 110.956L1627.86 103.051L1621.72 99.244L1622.59 103.342L1617.03 98.6572L1617.33 95.1437L1610.3 91.0451L1599.48 83.7247L1598.01 78.4544L1588.06 73.1841L1580.46 65.572L1571.09 63.2303L1562.31 57.0816L1557.92 52.6897L1543.59 53.568H1533.05L1517.25 50.0545L1516.66 57.6665L1514.32 60.5951L1521.05 66.4504L1519.88 72.8925L1511.39 76.991L1506.13 72.3057L1502.32 70.5489L1501.74 63.2285L1497.64 58.8366L1502.91 61.1783L1507.59 59.4215L1507.3 54.4447L1498.81 52.3945V56.2014L1495.89 59.1299L1490.62 61.4717L1489.45 66.4486L1486.81 62.9351L1480.08 62.3501L1471.6 62.0567L1465.16 56.493L1460.77 58.8348L1453.75 59.4198L1449.36 62.9334L1444.09 60.8832L1436.77 56.4913L1432.09 55.0279L1434.73 49.7576L1435.61 44.7807L1432.68 37.4602L1428 30.7265L1418.05 28.9698L1406.93 29.5548L1389.08 30.4332L1382.64 30.7265L1377.67 31.0199L1376.2 26.628L1375.03 19.8943L1368.3 20.1877L1363.33 15.5024L1359.23 12.5738L1352.5 11.9888L1355.72 9.06031L1362.45 9.64532L1358.64 1.73987L1348.69 -2.94544L1339.33 -2.36042L1334.94 6.71681L1329.09 12.5721L1323.24 14.9139L1322.65 10.2286L1325.58 6.42167L1330.85 -0.0204086L1330.26 8.7634L1335.82 -3.24058L1329.38 -1.48381L1323.82 0.272958L1317.38 -1.48381L1317.97 -6.75411L1327.63 -5.29071L1332.89 -6.46249L1325.29 -9.391L1316.8 -10.8544L1305.97 -13.4896L1298.36 -13.7829L1292.22 -15.8331L1291.63 -9.09938L1288.71 -5.58585H1281.1L1277.3 -0.608937H1285.2L1280.22 5.83311L1285.49 16.6671L1277.59 18.1305L1274.08 14.9104L1268.23 19.3023L1264.13 15.2037H1258.57L1248.62 13.1536L1241.6 21.0591L1235.16 16.6671L1228.43 7.58988L1222.58 21.9374L1221.4 29.8429L1217.31 33.6498L1211.16 28.0861L1202.09 21.9374L1200.92 14.032L1199.75 6.4199L1202.09 -0.607168L1203.55 -12.9045L1202.67 -21.6884L1193.02 -33.6924L1181.6 -33.1074L1169.61 -38.6711L1157.32 -41.5996L1155.56 -31.059L1156.73 -21.3968L1150.29 -20.5184L1133.91 -21.9818L1126.01 -24.0319L1121.32 -22.5685L1118.69 -30.1806L1123.08 -31.9374L1111.37 -34.8659L1095.57 -38.086L1087.96 -34.8659L1080.36 -34.5725L1078.6 -43.063L1076.26 -45.6981L1073.63 -38.3777L1066.31 -41.3062L1065.73 -47.1615L1059 -43.9414L1053.44 -44.5264L1052.26 -36.0359L1057.82 -34.2791L1047.29 -26.9587L1033.24 -25.2019L1025.93 -22.5668L1028.27 -29.3005L1038.8 -37.7909L1042.9 -39.2543L1050.51 -48.3315L1056.36 -56.822L1068.65 -64.7274L1073.62 -61.5073L1066.02 -55.652L1070.7 -48.9183L1076.84 -50.9684L1082.11 -58.8739L1075.09 -60.924L1068.94 -65.901L1073.04 -70.5862L1080.06 -76.4416L1083.57 -84.0536L1085.33 -89.3239L1080.35 -94.0092L1084.45 -96.351L1084.74 -102.206L1080.65 -109.527L1079.48 -114.504L1074.79 -111.284L1072.16 -122.409L1062.21 -127.679L1048.46 -129.143L1038.22 -127.093L1036.17 -122.407H1023.58L1033.24 -132.07L1035.87 -138.512L1021.53 -140.853L1013.93 -139.39L1021.24 -149.052L1025.63 -154.616L1016.27 -158.129L1006.61 -159.886L993.738 -151.396L984.374 -134.706L987.008 -128.558L989.641 -120.359L979.4 -121.531H971.499L976.766 -113.625L969.159 -113.04L957.746 -107.185L947.212 -103.671L951.016 -112.749L938.726 -109.235C938.726 -109.235 922.34 -108.063 923.217 -107.478C924.095 -106.893 932.874 -103.086 932.874 -103.086L910.049 -95.4744L895.125 -87.2755L886.346 -79.6635L880.786 -79.9568L879.323 -72.6364L872.3 -69.4162L878.152 -60.339C878.152 -60.339 872.3 -56.8255 873.178 -55.6537C874.056 -54.4819 885.469 -44.8197 885.469 -44.8197L878.152 -41.3062L867.618 -39.8428L856.498 -40.4278L844.208 -37.4993L835.136 -34.5708L831.625 -24.9085L836.014 -13.7829L834.843 -7.34087L843.037 -0.607168L846.549 1.73459L849.475 8.17667L853.865 11.3968L853.28 19.8873L853.865 33.648L850.06 32.1846L846.549 34.2348V23.9876L851.231 17.5455L851.524 12.2752L846.55 11.1034L842.745 12.8602L835.722 6.7115L825.481 -2.3657L817.58 -4.12247L810.557 0.854463L813.775 5.8314L809.679 8.75992L804.119 4.368L798.267 7.58817L806.461 20.1789L816.411 23.1074L814.07 30.1345L806.754 25.1576L799.731 24.2792L790.952 20.1807L792.708 9.05505C792.708 9.05505 793.293 -0.0221778 793.293 -0.900561C793.293 -1.77895 793.293 -12.6129 793.293 -12.6129L788.61 -17.5899V-12.6129L789.781 -5.58585L786.854 2.61297L776.32 8.76169L774.857 18.4239L783.343 31.3062L784.514 40.0901L779.831 50.6307L779.538 62.3431L783.049 72.8837L793.291 69.0767H802.363L809.386 76.9822L810.849 87.5228L812.604 91.3297L808.8 96.8934L812.604 99.8219L815.823 102.75L811.14 104.214L804.995 100.407L807.335 91.0381L805.286 84.011L800.603 75.2272L785.679 80.4975L783.631 89.5747L789.483 99.2369L783.337 105.092L780.704 110.069L776.899 117.096L768.705 123.245L768.998 129.687L760.804 126.467L752.025 125.882L757.877 121.783L764.022 118.27L769.583 109.779L771.045 103.631L776.019 99.8237L776.313 90.7465L780.409 83.1344L771.337 74.3506L771.044 62.0532L773.093 51.5126L770.166 44.1922L774.262 42.7288L773.384 26.9179L767.532 18.134L766.654 13.1571L769.872 -0.603657L771.628 -10.5593L770.166 -16.1229L761.68 -18.4647L753.779 -18.1713L755.828 -23.1483L764.022 -24.6116L760.217 -30.1753L755.535 -33.1039L749.974 -26.6618L754.071 -22.2699L752.022 -17.878L747.925 -19.3413L745.292 -14.6561L743.829 -8.80073L741.489 0.568093L739.733 9.05854L735.637 17.8424L727.151 24.8694L729.2 29.2614L723.933 32.4815L725.982 35.7017L730.078 33.9449V39.8002V46.2423L730.956 50.9276L726.273 54.1478L727.736 62.0532L730.663 59.4181L735.93 63.225L737.101 62.3466V69.3736L741.49 76.4007L743.831 76.6941L742.368 84.3062L739.442 91.0399L735.637 85.4762L731.541 79.9125C731.541 79.9125 728.907 75.5206 728.029 75.5206C727.151 75.5206 721.299 74.3488 721.299 74.3488L712.52 68.7851L705.79 62.0514L698.767 58.8313L689.989 56.7811L682.088 56.4878L678.283 57.6595L675.942 50.3391L665.115 41.5552L664.53 46.8255L666.579 53.2676L671.553 57.9529L677.698 58.8313V61.1731L678.869 67.0284L682.088 73.1771L681.21 79.3257L675.358 80.7891L674.48 87.5228L669.506 86.6444V78.154L667.165 73.4687L661.02 78.154L654.875 79.9108L654.582 83.4243L647.559 82.5459L639.658 84.0093L636.146 91.3297L628.83 90.4514C628.83 90.4514 620.344 89.2796 623.563 88.6946C626.781 88.1096 630.879 84.3027 630.879 84.3027V77.8606L622.393 77.5672L616.541 81.0807L617.419 87.8144L610.689 84.5943L603.96 90.4496L588.451 97.1833L584.355 103.332L580.843 113.288L575.869 117.679L565.628 114.751L562.41 107.43L563.581 100.11L568.263 99.525L573.237 97.4749L571.775 92.7896L569.141 89.5694L565.923 84.8842L555.973 84.5908L546.023 81.0773L552.753 88.3977L554.215 93.9614L552.753 101.573L550.119 107.429L554.215 112.406L556.556 117.383L555.093 126.166L555.678 136.122L548.948 128.217L541.34 124.996L538.414 129.095L531.097 134.659L523.196 139.636C523.196 139.636 521.147 143.149 521.734 144.027C522.32 144.906 525.83 154.275 525.83 154.275L529.635 159.838L525.245 161.01L517.344 157.497L507.981 155.155L500.373 149.591C500.373 149.591 494.813 155.446 495.69 156.033C496.568 156.62 503.007 164.524 503.007 164.524L508.274 162.767L510.323 171.257L505.934 171.551L497.448 170.966L490.132 164.524L484.865 161.304L481.353 153.105L481.06 145.199L482.231 141.101L482.815 135.537L477.255 130.267L472.281 124.996L467.891 120.02L463.502 120.605V115.334L463.795 111.236L469.941 113.286L472.281 117.678L479.304 120.606L486.034 123.535L496.862 127.342L503.007 130.562L514.126 132.904L522.027 128.512L528.757 122.948L535.195 113.579L533.439 108.015L530.806 100.988L522.027 93.668L513.248 88.6911L504.176 79.3222L495.982 72.0018L484.276 67.0248L474.62 66.7315L467.89 64.6813L463.207 59.411L457.355 58.2393L454.137 61.4594L448.285 60.2876L446.529 63.8012L441.555 66.7297L439.799 72.585L437.166 72.2917L434.825 77.2686V81.0755L437.459 86.9308L444.189 93.9579L446.238 100.107L448.287 101.278L440.093 114.747L448.287 137.879L446.824 139.636L446.239 146.369L446.824 153.103L449.165 156.91L449.749 163.059L452.383 167.157L448.578 173.012L452.09 178.576L456.479 180.333L457.65 185.603L459.699 187.36L458.528 191.752L452.967 197.022L447.7 202.292L443.604 209.319L440.093 215.762L433.654 221.032L429.558 226.596L435.41 224.545L435.994 227.766L441.555 231.864L444.482 231.571L448.287 235.963L441.557 235.669L438.63 235.963L433.363 238.891L431.022 242.111L431.607 246.797L426.633 251.774L430.144 261.729L433.071 264.949L434.534 270.513L434.827 279.297L434.534 285.152L435.705 288.372L446.533 289.544L447.995 292.764L454.14 291.886L456.481 303.011L459.114 311.795L463.211 315.894L463.504 319.407L467.6 322.921L465.551 328.485L459.699 328.191L460.87 332.876L462.333 339.61L467.307 338.732L471.696 338.438H477.257L480.768 343.124L481.939 351.908L487.207 352.201L489.84 359.228L491.011 362.157L497.157 361.571L502.131 363.622L506.52 360.986L509.154 364.5L513.25 366.257L517.346 369.477L519.395 369.184L521.151 371.525L525.833 371.819L524.371 377.089L523.493 380.018L526.42 385.873L523.493 390.558L518.81 390.852L515.592 394.072L511.203 396.707L512.665 400.22H519.104L512.081 404.906L505.642 406.077L511.203 412.811L506.813 413.396L503.009 418.373L499.204 420.13L497.448 421.887L502.131 424.522L504.764 428.62L514.128 432.427C514.128 432.427 516.468 433.306 517.346 433.891C518.224 434.476 519.982 439.175 519.982 439.175V439.175Z" fill="#808080" stroke="white" stroke-width="0.7"/>
<path d="M393.127 313.273L385.885 313.492L379.52 311.296L372.717 311.516H370.522L372.717 309.1L371.4 306.685L376.228 305.587L376.667 307.783L379.081 305.806L378.423 301.853L380.179 300.975L379.52 299.218L382.812 301.414L387.641 303.171L393.786 305.147L394.225 308.661L394.005 311.516L393.127 313.273Z" fill="#808080" stroke="white" stroke-width="0.7"/>
<path d="M239.643 354.556L235.254 356.898L231.158 358.948L229.402 364.804L227.939 367.732L221.209 370.661L220.916 374.468L218.283 375.346L212.722 375.053H210.382L207.455 372.417H203.65L205.113 377.103L206.575 379.738L207.16 384.423L202.77 384.717L198.674 384.423L194.869 381.788L190.773 382.081L185.799 384.717L181.117 385.302C181.117 385.302 176.727 385.302 177.898 385.887C179.069 386.472 181.703 387.643 181.703 387.643L184.63 389.4L183.167 391.45L186.679 393.792L189.606 393.499L193.702 396.134L195.458 397.891L197.507 397.597L200.725 397.891L199.847 401.697L202.188 404.333L203.359 406.674L207.163 410.188L209.797 413.116L209.504 415.167L210.382 418.974L211.26 420.437L209.504 420.144L208.626 424.535L209.211 430.099L208.626 435.076L208.041 438.296L210.382 441.225L209.797 443.86L216.235 445.91L221.796 446.495L227.063 446.202L230.575 446.787L234.086 449.128L239.647 450.007H243.452L244.623 446.2L243.452 445.028L245.792 441.808L247.841 442.101L251.352 440.345L254.279 441.808L258.084 443.271L261.011 443.856L264.522 444.441L268.912 443.856L269.79 441.515L273.594 439.464L275.935 437.708L280.251 434.779L277.836 432.364L275.349 431.266L273.3 429.509L273.08 424.384L271.544 423.067L274.397 418.675L274.762 412.672L273.152 407.548L270.812 406.376L267.446 407.548L268.908 402.862L273.298 396.568L277.542 394.078L276.664 388.075L277.835 383.829L282.37 377.681L275.64 376.509L270.08 374.459L266.275 373.287H264.519L257.789 368.895L257.204 365.088L253.4 367.43L251.644 363.916L249.01 360.11L244.914 359.816L243.452 357.474L241.403 357.181L239.643 354.556V354.556Z" fill="#808080" stroke="white" stroke-width="0.7"/>
<path d="M289.098 445.03L288.22 447.959H286.464L284.124 450.3L283.246 453.52L284.709 456.449L287.049 459.963L288.805 462.013L290.561 457.621L291.439 454.401L290.561 448.837V446.202L289.098 445.03V445.03Z" fill="#808080" stroke="white" stroke-width="0.7"/>
<path d="M69.2086 176.523C64.5832 176.883 57.3866 175.002 55.2918 173.177C53.197 171.352 48.1095 170.894 44.37 170.135C40.628 169.373 35.5406 167.397 38.684 166.331C41.8251 165.268 48.4088 166.94 46.9125 162.226C45.4162 157.51 46.4648 157.359 44.5184 157.51C42.5744 157.664 41.6766 152.493 39.431 152.493C37.1877 152.493 28.0591 153.556 31.0517 150.818C34.0443 148.081 47.9611 150.972 47.2117 148.234C46.4648 145.496 45.567 145.801 44.0707 145.951C42.5744 146.105 40.4796 145.801 43.4722 144.126C46.4648 142.455 47.0633 142.301 44.6692 141.238C42.2751 140.172 34.7936 140.934 31.9495 141.238C29.1077 141.542 24.918 141.542 26.862 139.564C28.8084 137.588 32.8472 138.347 31.9495 136.979C31.0517 135.609 26.5628 135.001 29.7062 134.546C32.8472 134.088 35.6914 137.284 35.8398 135.305C35.9907 133.329 32.9981 130.438 34.6428 129.222C36.2899 128.005 42.1243 135.154 42.1243 132.568C42.1243 129.983 34.4944 126.18 37.487 124.812C40.4796 123.442 44.5184 125.267 46.1655 127.854C47.8103 130.438 47.6618 131.504 49.3066 131.959C50.9537 132.417 50.3552 144.126 51.8515 143.671C53.3478 143.214 53.3478 137.739 54.8441 136.522C56.3404 135.305 56.9389 138.043 57.5374 135.913C58.136 133.784 56.6397 130.742 58.4352 130.438C60.2308 130.134 63.8219 137.892 65.1674 135.305C66.5153 132.721 64.4204 130.134 66.9629 128.917C69.5079 127.701 70.2572 128.613 71.7535 131.808C73.2498 135.001 76.2424 137.13 75.9432 135.001C75.6439 132.872 73.6975 129.526 75.4931 129.071C77.2886 128.613 79.0842 132.417 80.5805 131.047C82.0768 129.679 81.179 127.854 83.4247 127.854C85.6679 127.854 87.7628 126.788 86.5657 124.963C85.3687 123.138 87.6143 120.705 89.4099 120.4C91.2055 120.096 91.3539 126.788 93.1495 126.18C94.945 125.571 94.945 123.746 97.3391 122.834C99.7332 121.921 100.032 123.442 98.5361 125.267C97.0398 127.092 96.5921 128.309 98.3877 129.375C100.183 130.438 98.2369 134.242 101.529 135.305C104.821 136.371 106.767 137.13 106.767 140.476C106.767 143.822 110.806 146.56 107.964 147.626C105.12 148.689 101.529 151.58 101.229 154.013C100.93 156.447 99.1347 161.314 97.0398 161.465C94.945 161.618 91.3539 161.769 89.4099 163.747C87.4635 165.723 84.7702 169.527 82.2276 169.831C79.6827 170.135 76.0916 169.831 74.4469 171.198C72.7997 172.568 71.155 176.369 69.2086 176.523Z" fill="#808080" stroke="white" stroke-width="0.7"/>
<path d="M284.854 306.539L283.392 304.049L283.831 298.559L279.88 298.12L279.441 289.556L279.88 284.725L283.392 284.066L281.856 279.015L284.928 277.478L289.756 276.161L293.487 271.33L296.56 268.255L298.974 268.036L297.438 271.769L298.755 273.526L296.999 277.917L295.024 279.015L296.779 281.87L296.341 287.14L301.169 285.603L300.072 289.776L294.804 290.874C294.804 290.874 293.707 292.63 293.926 293.289C294.146 293.948 294.365 296.803 294.365 296.803L292.171 297.242L291.073 298.779L294.146 299.218L296.56 297.242L298.316 299.877L300.949 301.414L300.73 304.708L296.56 306.245H293.707L292.829 304.269L292.39 300.755L291.732 299.877L290.415 300.536L289.976 302.732L289.756 304.489L290.269 306.685L284.854 306.539V306.539Z" fill="#808080" stroke="white" stroke-width="0.7"/>
<path d="M312.362 290.654L308.85 292.191L308.192 295.705L306.436 293.07L303.583 294.826C303.583 294.826 301.827 296.803 302.705 297.462C303.583 298.12 304.461 302.073 304.461 302.073L306.875 302.512L308.631 304.928L306.436 305.587L302.925 306.026L303.803 308.88L307.095 309.978L308.411 306.684L309.509 305.367L310.606 302.951L313.459 301.634L312.362 298.779L310.826 296.583L311.923 294.168L313.679 293.948L312.362 290.654Z" fill="#808080" stroke="white" stroke-width="0.7"/>
<path d="M471.606 533.541C471.606 537.439 468.268 540.593 464.143 540.593C460.018 540.593 456.68 537.439 456.68 533.541C456.68 529.638 460.018 526.49 464.143 526.49C468.268 526.49 471.606 529.644 471.606 533.541Z" fill="#808080" stroke="white" stroke-width="0.7"/>
</g>
</g>
<defs>
<clipPath id="clip0">
<rect width="568" height="568" fill="white"/>
</clipPath>
</defs>
</svg>
